Coordinates
version=1
nRows=9
nColumns=36
inDegrees=yes

Units are S.I. units (second, meters, Newtons, ...)
If the header above contains a line with 'inDegrees', this indicates whether rotational values are in degrees (yes) or radians (no).

endheader
time	pelvis_tilt	pelvis_list	pelvis_rotation	pelvis_tx	pelvis_ty	pelvis_tz	hip_flexion_r	hip_adduction_r	hip_rotation_r	knee_angle_r	knee_angle_r_beta	ankle_angle_r	subtalar_angle_r	mtp_angle_r	hip_flexion_l	hip_adduction_l	hip_rotation_l	knee_angle_l	knee_angle_l_beta	ankle_angle_l	subtalar_angle_l	mtp_angle_l	lumbar_extension	lumbar_bending	lumbar_rotation	arm_flex_r	arm_add_r	arm_rot_r	elbow_flex_r	pro_sup_r	arm_flex_l	arm_add_l	arm_rot_l	elbow_flex_l	pro_sup_l
      1.50000000	    -18.73073627	      1.41914229	     -3.85740383	     -0.98115590	      1.24981122	     -0.10470730	     38.71731788	     -4.12929870	      0.93687572	     35.37278717	      0.61737160	     22.88562027	     -3.72512112	     -7.49999987	     37.23159174	     -2.73559242	     -2.17442047	     37.93177755	      0.66203441	     28.26517405	     -0.82303273	     -7.49999987	    -21.02303199	     -0.31367486	      2.85413693	     10.07663160	    -15.24486909	      7.77603996	     33.11864157	     87.81831497	      6.51027066	    -11.24975710	     10.35997207	     35.56899344	     78.45490073
      1.50416670	    -19.11141483	      1.46731534	     -3.85265967	     -0.98365976	      1.24520371	     -0.10534869	     39.66888244	     -4.26791535	      0.76011220	     36.34071101	      0.63426506	     23.46711924	     -3.51227147	     -7.49999987	     38.04582096	     -2.74520127	     -2.35342003	     38.60550738	      0.67379321	     28.79765707	     -0.51355669	     -7.49999987	    -21.10701525	     -0.30551129	      2.94700007	      9.74972968	    -15.52905500	      7.64743293	     33.45556794	     85.45904816	      6.15669711	    -11.24394274	     10.23342327	     35.76295729	     76.56544662
      1.50833330	    -19.67202883	      1.45225633	     -3.80146701	     -0.98457895	      1.24107345	     -0.10612438	     40.90864686	     -4.37292099	      0.52323704	     37.46422841	      0.65387414	     24.02022244	     -2.88494427	     -7.49999987	     39.20444234	     -2.78866692	     -2.36923644	     39.59608310	      0.69108202	     29.15640257	     -0.94225742	     -7.49999987	    -20.81847851	     -0.10171240	      2.97852399	      9.55318040	    -15.86846892	      7.81886311	     33.31812118	     85.09327082	      5.86205066	    -11.24699148	     10.51926103	     35.49639650	     76.14572604
      1.51250000	    -20.08867940	      1.47956563	     -3.76632846	     -0.98549042	      1.23766237	     -0.10638441	     42.02132928	     -4.46649699	      0.40886234	     38.66009464	      0.67474594	     24.71727431	     -2.19959177	     -7.49999987	     40.30583327	     -2.80043116	     -2.34928848	     40.69575141	      0.71027485	     29.72353800	     -0.91359767	     -7.49999987	    -20.79709046	     -0.02929706	      3.03615670	      9.31770621	    -16.18054829	      7.95466367	     33.46488015	     83.39299066	      5.59045185	    -11.28788180	     10.72508768	     35.47411520	     74.78260436
      1.51666670	    -20.63786704	      1.52577680	     -3.75487032	     -0.98580699	      1.23383996	     -0.10680312	     43.25893771	     -4.61535734	      0.24510654	     39.91223380	      0.69659989	     25.25926637	     -1.91780246	     -7.49999987	     41.51556657	     -2.78804897	     -2.27014554	     41.83463563	      0.73015213	     30.18834825	     -1.11057474	     -7.49999987	    -20.44622223	      0.06636023	      3.08649202	      9.14091160	    -16.52264581	      8.33884445	     33.27609030	     83.26514577	      5.36977780	    -11.33835919	     11.16538694	     35.14741493	     74.45671357
      1.52083330	    -21.16747436	      1.51022406	     -3.74927041	     -0.98701437	      1.22970970	     -0.10565728	     44.49499020	     -4.66729295	      0.14486881	     41.11085292	      0.71751974	     25.74596674	     -1.93673035	     -7.49999987	     42.72432879	     -2.94268589	     -2.24413833	     43.12540024	      0.75268023	     30.60227590	     -1.32203814	     -7.49999987	    -20.16159816	      0.14220538	      3.19921679	      8.90804799	    -16.75963787	      8.12881046	     33.18522927	     86.07689242	      5.14545418	    -11.47645968	     11.65258244	     35.03942715	     74.25777350
      1.52500000	    -21.65217673	      1.47032987	     -3.78206019	     -0.98725771	      1.22604434	     -0.10587628	     45.60383401	     -4.68404498	      0.00554511	     42.21010100	      0.73670524	     26.24149962	     -1.78353181	     -7.49999987	     43.87867697	     -3.09534278	     -2.10217408	     44.38961012	      0.77474485	     31.02764724	     -1.33791687	     -7.49999987	    -19.88501185	      0.19859254	      3.37651836	      8.61139205	    -17.04429557	      8.35815145	     33.09121616	     84.21979868	      4.84269788	    -11.54519751	     11.78050694	     34.95337301	     73.05250674
      1.52916670	    -21.83879466	      1.45686387	     -3.73312096	     -0.98756454	      1.22318582	     -0.10488698	     46.23158818	     -4.68924569	     -0.03366554	     42.96858222	      0.74994323	     26.38285068	     -2.03221450	     -7.49999987	     44.58784657	     -3.15629349	     -2.02133251	     45.32526732	      0.79107515	     31.27214272	     -1.60317179	     -7.49999987	    -20.34602770	      0.18524154	      3.33032691	      8.13447640	    -17.37771229	      8.33755668	     34.40025691	     82.79786725	      4.27488249	    -11.91589905	     11.72276758	     36.27714865	     72.13931077
      1.53333330	    -22.61089805	      1.36443031	     -3.68868256	     -0.98738961	      1.22076643	     -0.10587776	     47.52441140	     -4.68796644	     -0.27773621	     43.93752729	      0.76685452	     27.10417482	     -1.55403402	     -7.49999987	     46.01699846	     -3.34704313	     -1.95580555	     46.43753441	      0.81048787	     31.51474429	     -1.24285677	     -7.49999987	    -19.34043206	      0.31885538	      3.47388330	      8.12100982	    -17.41046602	      8.90650399	     32.72131166	     82.66157162	      4.35133800	    -11.74350336	     12.16460687	     34.64242389	     71.75290924
